<svg width="61" height="61" viewBox="0 0 61 61" fill="none" xmlns="http://www.w3.org/2000/svg">
<path d="M22.968 30.9047C22.968 32.2854 21.8487 33.4047 20.468 33.4047C19.0873 33.4047 17.968 32.2854 17.968 30.9047C17.968 29.5239 19.0873 28.4047 20.468 28.4047C21.8487 28.4047 22.968 29.5239 22.968 30.9047Z" fill="black"/>
<path d="M32.968 30.9047C32.968 32.2854 31.8487 33.4047 30.468 33.4047C29.0872 33.4047 27.968 32.2854 27.968 30.9047C27.968 29.5239 29.0872 28.4047 30.468 28.4047C31.8487 28.4047 32.968 29.5239 32.968 30.9047Z" fill="black"/>
<path d="M42.968 30.9047C42.968 32.2854 41.8487 33.4047 40.468 33.4047C39.0872 33.4047 37.968 32.2854 37.968 30.9047C37.968 29.5239 39.0872 28.4047 40.468 28.4047C41.8487 28.4047 42.968 29.5239 42.968 30.9047Z" fill="black"/>
<path fill-rule="evenodd" clip-rule="evenodd" d="M57.343 30.9047C57.343 16.062 45.3107 4.02969 30.468 4.02969C15.6253 4.02969 3.59296 16.062 3.59296 30.9047C3.59296 35.2004 4.60223 39.2659 6.39828 42.8719C6.66628 43.4099 6.72316 43.9594 6.59946 44.4217L5.11046 49.9867C4.09113 53.7962 7.57638 57.2814 11.386 56.2622L16.9511 54.7732C17.4133 54.6494 17.9627 54.7064 18.5008 54.9744C22.1068 56.7704 26.1722 57.7797 30.468 57.7797C45.3107 57.7797 57.343 45.7474 57.343 30.9047ZM30.468 7.77969C43.2395 7.77969 53.593 18.1331 53.593 30.9047C53.593 43.6762 43.2395 54.0297 30.468 54.0297C26.7652 54.0297 23.271 53.1609 20.1727 51.6177C18.9292 50.9984 17.4423 50.7599 15.9818 51.1507L10.4167 52.6397C9.39461 52.9132 8.45953 51.9779 8.73301 50.9559L10.222 45.3909C10.6128 43.9304 10.3743 42.4434 9.75496 41.1999C8.21176 38.1017 7.34296 34.6074 7.34296 30.9047C7.34296 18.1331 17.6964 7.77969 30.468 7.77969Z" fill="black"/>
</svg>
