<svg width="52" height="60" viewBox="0 0 52 60" fill="none" xmlns="http://www.w3.org/2000/svg">
<path d="M22.6154 26.7692C30.0075 26.7692 36.0001 20.7767 36.0001 13.3846C36.0001 5.99255 30.0076 0 22.6154 0C15.2232 0 9.23088 5.99255 9.23088 13.3846C9.23088 20.7767 15.2233 26.7692 22.6154 26.7692ZM29.0168 18.7413C28.408 20.7545 25.7997 22.2678 22.6738 22.2678C19.5478 22.2678 16.9396 20.7544 16.3308 18.7413H29.0168ZM51.4218 57.1201L46.3125 52.0121C47.9303 50.2132 48.9231 47.8416 48.9231 45.2319C48.9231 39.6241 44.3772 35.0781 38.7692 35.0781C33.1615 35.0781 28.6155 39.6241 28.6155 45.2319C28.6155 50.8398 33.1615 55.3858 38.7692 55.3858C40.4232 55.3858 41.9798 54.982 43.3598 54.2804L48.8113 59.7308C49.1703 60.0898 49.7577 60.0896 50.1166 59.7308L51.4217 58.4257C51.7808 58.0666 51.7808 57.4791 51.4218 57.1201ZM38.7693 51.6934C35.2007 51.6934 32.3077 48.8005 32.3077 45.2319C32.3077 41.6634 35.2007 38.7705 38.7693 38.7705C42.3377 38.7705 45.2309 41.6634 45.2309 45.2319C45.2309 48.8006 42.3378 51.6934 38.7693 51.6934ZM26.3078 45.2317C26.3078 46.8275 26.6204 48.3488 27.1693 49.7526C25.7517 49.8126 24.2357 49.8462 22.6154 49.8462C9.7098 49.8462 3.39422 47.7374 1.07882 46.707C0.481373 46.4412 0 45.6812 0 45.0273V40.6153C0 34.0039 5.03372 28.5191 11.4569 27.7845C11.6521 27.7622 11.9415 27.8457 12.1005 27.9609C15.0621 30.105 18.6878 31.3844 22.6152 31.3844C26.5426 31.3844 30.1683 30.1049 33.13 27.9609C33.2889 27.8457 33.5784 27.7622 33.7735 27.7845C37.671 28.2303 41.0481 30.4311 43.1083 33.5651C41.7547 33.0598 40.2966 32.7701 38.7689 32.7701C31.8979 32.7702 26.3078 38.3599 26.3078 45.2317Z" fill="white"/>
</svg>
